<?xml version="1.0" encoding="UTF-8"?>
<svg width="512px" height="512px" viewBox="0 0 512 512" version="1.2" xmlns="http://www.w3.org/2000/svg" xmlns:xlink="http://www.w3.org/1999/xlink">
	<style type="text/css">
		rect {
			fill: rgb(34, 34, 34);
		}
		@media (prefers-color-scheme: dark) {
			rect { fill: none; }
		}
	</style>
	<g id="logo">
		<rect width="512" height="512"/>

		<polygon style="fill: rgb(166, 166, 166);" points="252 97 363 125 411 228 379 221 344 149 260 128 252 97"/>
		<polygon style="fill: rgb(166, 166, 166);" points="324 176 341 155 374 222 357 242 324 176"/>
		<polygon style="fill: rgb(166, 166, 166);" points="378 226 409 232 399 283 361 246 378 226"/>
		<polygon style="fill: rgb(166, 166, 166);" points="158 379 321 180 334 206 186 387 158 379"/>

		<polygon style="fill: rgb(255, 255, 255);" points="260 132 336 152 318 173 243 154 260 132"/>
		<polygon style="fill: rgb(255, 255, 255);" points="256 130 239 151 193 123 247 98 256 130"/>
		<polygon style="fill: rgb(255, 255, 255);" points="139 348 286 169 316 176 153 375 139 348"/>
	</g>
</svg>
